<svg width="21" height="27" viewBox="0 0 21 27" fill="none" xmlns="http://www.w3.org/2000/svg">
<path d="M21 26.9998H18.6667V21.3446C18.6657 20.4655 18.302 19.6226 17.6552 19.0009C17.0084 18.3792 16.1315 18.0296 15.2168 18.0287H5.78317C4.8685 18.0296 3.99156 18.3792 3.34479 19.0009C2.69802 19.6226 2.33426 20.4655 2.33333 21.3446V26.9998H0V21.3446C0.00185247 19.8709 0.611743 18.4581 1.6959 17.416C2.78005 16.3739 4.24994 15.7877 5.78317 15.7859H15.2168C16.7501 15.7877 18.22 16.3739 19.3041 17.416C20.3883 18.4581 20.9981 19.8709 21 21.3446V26.9998Z" fill="white"/>
<path d="M10.5 13.5432C9.11553 13.5432 7.76216 13.1485 6.61101 12.4092C5.45987 11.6699 4.56266 10.6191 4.03285 9.38962C3.50303 8.16018 3.36441 6.80733 3.63451 5.50215C3.9046 4.19698 4.57129 2.9981 5.55026 2.05712C6.52922 1.11614 7.7765 0.475328 9.13437 0.215712C10.4922 -0.0439029 11.8997 0.0893411 13.1788 0.598595C14.4579 1.10785 15.5511 1.97024 16.3203 3.07671C17.0895 4.18319 17.5 5.48405 17.5 6.81479C17.4982 8.59872 16.7601 10.3091 15.4477 11.5705C14.1354 12.8319 12.356 13.5414 10.5 13.5432ZM10.5 2.32922C9.57702 2.32922 8.67477 2.59229 7.90734 3.08517C7.13991 3.57805 6.54177 4.2786 6.18857 5.09824C5.83536 5.91787 5.74294 6.81977 5.92301 7.68988C6.10307 8.56 6.54753 9.35925 7.20017 9.98657C7.85282 10.6139 8.68434 11.0411 9.58958 11.2142C10.4948 11.3873 11.4331 11.2984 12.2859 10.9589C13.1386 10.6194 13.8674 10.0445 14.3802 9.30684C14.893 8.56919 15.1667 7.70195 15.1667 6.81479C15.1667 5.62514 14.675 4.48422 13.7998 3.64301C12.9247 2.8018 11.7377 2.32922 10.5 2.32922Z" fill="white"/>
</svg>
