<svg width="350" height="350" viewBox="0 0 350 350" fill="none" xmlns="http://www.w3.org/2000/svg">
<g filter="url(#filter0_d_14_696)">
<circle cx="175" cy="171" r="75" fill="#54C352"/>
</g>
<path d="M117.821 204.913L119.118 203.93L121.643 207.262L132.567 198.984L133.776 200.58L122.852 208.857L125.39 212.206L124.092 213.19L117.821 204.913Z" fill="white"/>
<path d="M116.782 195.416C116.39 194.596 116.215 193.77 116.256 192.937C116.284 192.111 116.56 191.345 117.084 190.64C117.602 189.921 118.364 189.321 119.37 188.84L125.782 185.777L126.636 187.564L120.482 190.504C119.397 191.022 118.699 191.689 118.389 192.503C118.066 193.324 118.129 194.204 118.578 195.144C119.033 196.096 119.695 196.715 120.562 197C121.423 197.271 122.423 197.135 123.561 196.591L129.576 193.717L130.439 195.524L115.749 202.542L114.886 200.736L120.246 198.175C119.519 198.083 118.855 197.799 118.253 197.322C117.646 196.833 117.155 196.197 116.782 195.416Z" fill="white"/>
<path d="M112.324 187.654C112.428 188.021 112.389 188.367 112.206 188.693C112.024 189.019 111.75 189.234 111.383 189.338C111.016 189.442 110.67 189.403 110.344 189.221C110.018 189.038 109.803 188.764 109.699 188.397C109.599 188.044 109.642 187.712 109.828 187.4C110.01 187.074 110.285 186.859 110.652 186.755C111.019 186.652 111.365 186.691 111.691 186.873C112.013 187.041 112.224 187.301 112.324 187.654ZM113.944 186.189L125.544 182.906L126.09 184.832L114.489 188.116L113.944 186.189Z" fill="white"/>
<path d="M111.895 174.771C111.74 173.313 112.059 172.084 112.852 171.085C113.631 170.088 114.852 169.501 116.515 169.324L123.581 168.572L123.79 170.541L117.008 171.263C115.812 171.39 114.933 171.786 114.369 172.45C113.791 173.117 113.557 173.967 113.667 175.003C113.779 176.053 114.196 176.857 114.919 177.414C115.641 177.957 116.628 178.161 117.883 178.028L124.511 177.323L124.723 179.314L112.735 180.589L112.523 178.598L114.229 178.417C113.575 178.088 113.044 177.606 112.638 176.971C112.229 176.321 111.982 175.588 111.895 174.771Z" fill="white"/>
<path d="M124.772 161.372L119.016 165.565L124.315 166.08L124.121 168.072L107.918 166.499L108.111 164.506L117.636 165.431L112.764 160.294L113.034 157.513L118.463 163.743L125.036 158.656L124.772 161.372Z" fill="white"/>
<path d="M119.06 147.166C118.571 146.498 118.281 145.709 118.189 144.801C118.096 143.892 118.257 142.976 118.669 142.052C119.112 141.061 119.744 140.275 120.566 139.694C121.387 139.113 122.328 138.787 123.389 138.714C124.436 138.636 125.522 138.848 126.647 139.35C127.758 139.847 128.648 140.517 129.315 141.361C129.982 142.205 130.377 143.137 130.5 144.156C130.629 145.161 130.475 146.153 130.039 147.13C129.614 148.081 129.033 148.825 128.295 149.363C127.562 149.887 126.794 150.187 125.99 150.261L128.019 151.167L127.202 152.995L112.338 146.356L113.154 144.528L119.06 147.166ZM125.812 141.218C124.982 140.848 124.184 140.692 123.419 140.752C122.653 140.811 121.981 141.057 121.402 141.49C120.83 141.908 120.391 142.459 120.086 143.142C119.787 143.812 119.676 144.509 119.754 145.235C119.824 145.941 120.096 146.608 120.57 147.238C121.036 147.848 121.678 148.335 122.495 148.7C123.325 149.071 124.13 149.229 124.909 149.176C125.68 149.103 126.359 148.86 126.945 148.447C127.523 148.015 127.962 147.464 128.261 146.794C128.566 146.111 128.684 145.417 128.614 144.711C128.536 143.985 128.264 143.318 127.798 142.708C127.318 142.092 126.656 141.595 125.812 141.218Z" fill="white"/>
<path d="M133.531 130.327C133.838 130.553 134.15 130.809 134.467 131.096L128.761 138.861C129.761 139.506 130.751 139.732 131.729 139.541C132.703 139.329 133.503 138.797 134.129 137.946C134.641 137.249 134.907 136.553 134.927 135.857C134.943 135.142 134.749 134.489 134.345 133.901L135.621 132.163C136.364 133.109 136.744 134.19 136.762 135.404C136.768 136.61 136.345 137.791 135.494 138.95C134.816 139.872 134.001 140.547 133.049 140.976C132.106 141.392 131.104 141.53 130.044 141.388C128.971 141.237 127.933 140.792 126.928 140.054C125.924 139.315 125.191 138.467 124.73 137.51C124.269 136.552 124.102 135.565 124.23 134.549C124.355 133.512 124.765 132.521 125.46 131.576C126.138 130.654 126.938 129.986 127.861 129.572C128.784 129.158 129.739 129.023 130.726 129.166C131.71 129.288 132.645 129.675 133.531 130.327ZM131.97 131.746C131.355 131.294 130.729 131.043 130.092 130.994C129.443 130.936 128.833 131.06 128.261 131.368C127.686 131.655 127.19 132.082 126.773 132.65C126.174 133.465 125.921 134.354 126.016 135.315C126.119 136.264 126.601 137.119 127.462 137.879L131.97 131.746Z" fill="white"/>
<path d="M133.752 125.46L138.628 130.629C139.03 131.056 139.408 131.275 139.76 131.285C140.103 131.284 140.498 131.073 140.946 130.65L142.018 129.639L143.18 130.871L141.868 132.109C141.057 132.874 140.273 133.261 139.515 133.27C138.758 133.279 137.976 132.856 137.171 132.003L132.295 126.834L131.159 127.905L130.027 126.705L131.163 125.633L129.08 123.425L130.537 122.051L132.62 124.26L134.908 122.101L136.04 123.301L133.752 125.46Z" fill="white"/>
<path d="M141.157 119.714L145.186 125.567C145.518 126.051 145.858 126.324 146.205 126.388C146.543 126.44 146.966 126.292 147.474 125.942L148.688 125.107L149.648 126.502L148.162 127.525C147.244 128.157 146.41 128.419 145.659 128.312C144.909 128.206 144.202 127.669 143.537 126.702L139.508 120.848L138.221 121.734L137.286 120.375L138.573 119.489L136.851 116.988L138.501 115.853L140.222 118.354L142.813 116.571L143.749 117.93L141.157 119.714Z" fill="white"/>
<path d="M158.807 115.226C158.963 115.574 159.108 115.951 159.242 116.357L150.451 120.303C151.005 121.357 151.754 122.041 152.699 122.357C153.652 122.652 154.61 122.584 155.573 122.152C156.363 121.797 156.937 121.322 157.297 120.727C157.664 120.112 157.817 119.449 157.754 118.737L159.721 117.854C159.901 119.043 159.7 120.171 159.117 121.236C158.528 122.288 157.578 123.108 156.267 123.697C155.224 124.166 154.182 124.352 153.142 124.256C152.116 124.154 151.176 123.78 150.323 123.134C149.465 122.474 148.78 121.576 148.269 120.439C147.759 119.301 147.539 118.202 147.609 117.142C147.68 116.081 148.021 115.14 148.633 114.319C149.252 113.478 150.097 112.818 151.168 112.337C152.211 111.869 153.237 111.682 154.244 111.776C155.251 111.871 156.149 112.223 156.937 112.834C157.733 113.425 158.356 114.223 158.807 115.226ZM156.749 115.692C156.437 114.996 156.016 114.47 155.486 114.113C154.95 113.742 154.357 113.55 153.708 113.536C153.066 113.503 152.424 113.63 151.781 113.919C150.858 114.333 150.201 114.982 149.809 115.865C149.431 116.742 149.43 117.723 149.805 118.809L156.749 115.692Z" fill="white"/>
<path d="M161.043 111.504C161.22 110.75 161.576 110.111 162.112 109.587C162.662 109.059 163.393 108.683 164.304 108.459L164.798 110.467L164.285 110.593C162.106 111.129 161.307 112.579 161.889 114.943L163.454 121.31L161.51 121.788L158.631 110.08L160.575 109.602L161.043 111.504Z" fill="white"/>
<path d="M177.672 103.78L177.404 120.058L175.403 120.025L175.67 103.747L177.672 103.78Z" fill="white"/>
<path d="M184.438 106.72C184.06 106.668 183.758 106.493 183.533 106.195C183.307 105.898 183.221 105.56 183.273 105.182C183.325 104.804 183.5 104.503 183.797 104.277C184.095 104.052 184.432 103.965 184.81 104.017C185.173 104.067 185.46 104.24 185.671 104.536C185.897 104.833 185.984 105.171 185.932 105.549C185.879 105.926 185.705 106.228 185.407 106.453C185.124 106.681 184.801 106.77 184.438 106.72ZM185.129 108.791L183.483 120.734L181.5 120.461L183.146 108.518L185.129 108.791Z" fill="white"/>
<path d="M194.898 112.864L192.459 112.193L189.698 122.226L187.768 121.695L190.528 111.662L189.022 111.248L189.46 109.657L190.966 110.071L191.194 109.244C191.552 107.943 192.145 107.087 192.973 106.676C193.819 106.254 194.984 106.248 196.469 106.657L196.026 108.269C195.177 108.035 194.529 108.039 194.083 108.282C193.654 108.513 193.334 109.011 193.124 109.775L192.896 110.602L195.336 111.273L194.898 112.864Z" fill="white"/>
<path d="M206.741 122.563C206.577 122.908 206.384 123.262 206.162 123.628L197.46 119.49C197.016 120.594 196.98 121.608 197.353 122.533C197.745 123.45 198.418 124.135 199.371 124.589C200.153 124.96 200.887 125.09 201.573 124.978C202.28 124.859 202.884 124.545 203.385 124.037L205.332 124.963C204.543 125.871 203.554 126.448 202.365 126.694C201.182 126.928 199.942 126.736 198.644 126.119C197.611 125.627 196.794 124.955 196.193 124.101C195.605 123.253 195.281 122.295 195.221 121.227C195.167 120.145 195.407 119.042 195.943 117.916C196.478 116.79 197.172 115.91 198.026 115.277C198.879 114.643 199.817 114.293 200.839 114.227C201.881 114.154 202.931 114.369 203.991 114.873C205.024 115.364 205.831 116.024 206.412 116.852C206.992 117.681 207.306 118.593 207.351 119.589C207.417 120.578 207.214 121.57 206.741 122.563ZM205.053 121.298C205.381 120.609 205.509 119.947 205.437 119.312C205.372 118.664 205.134 118.088 204.724 117.584C204.333 117.074 203.82 116.668 203.184 116.365C202.27 115.931 201.35 115.85 200.424 116.125C199.511 116.405 198.763 117.04 198.179 118.029L205.053 121.298Z" fill="white"/>
<path d="M216.477 126.787C217.274 126.563 218.114 126.567 218.997 126.799C219.88 127.031 220.682 127.503 221.403 128.213C222.176 128.975 222.691 129.842 222.947 130.815C223.203 131.788 223.179 132.784 222.875 133.803C222.582 134.811 222.003 135.754 221.138 136.631C220.283 137.498 219.344 138.096 218.32 138.425C217.295 138.754 216.284 138.798 215.287 138.556C214.3 138.325 213.425 137.833 212.663 137.082C211.921 136.351 211.428 135.546 211.183 134.666C210.948 133.796 210.937 132.972 211.149 132.193L209.589 133.775L208.163 132.37L219.591 120.775L221.017 122.18L216.477 126.787ZM219.681 135.195C220.319 134.547 220.744 133.855 220.957 133.117C221.169 132.379 221.174 131.663 220.972 130.97C220.78 130.287 220.418 129.683 219.885 129.157C219.363 128.643 218.749 128.295 218.042 128.113C217.356 127.931 216.636 127.952 215.88 128.176C215.145 128.399 214.464 128.829 213.836 129.466C213.198 130.114 212.767 130.812 212.545 131.56C212.343 132.308 212.332 133.029 212.514 133.723C212.716 134.416 213.078 135.02 213.6 135.535C214.133 136.06 214.742 136.413 215.428 136.595C216.135 136.777 216.855 136.756 217.59 136.533C218.335 136.299 219.032 135.853 219.681 135.195Z" fill="white"/>
<path d="M227.177 146.241C226.858 146.45 226.508 146.652 226.128 146.848L220.855 138.782C219.901 139.494 219.342 140.341 219.179 141.324C219.036 142.311 219.253 143.247 219.831 144.13C220.304 144.855 220.863 145.348 221.508 145.61C222.172 145.876 222.851 145.923 223.544 145.75L224.724 147.555C223.578 147.919 222.433 147.896 221.289 147.488C220.158 147.071 219.199 146.26 218.413 145.057C217.787 144.1 217.44 143.1 217.372 142.058C217.312 141.028 217.535 140.042 218.039 139.099C218.556 138.147 219.337 137.33 220.38 136.648C221.424 135.966 222.475 135.577 223.533 135.481C224.592 135.385 225.574 135.574 226.481 136.05C227.409 136.531 228.193 137.262 228.835 138.244C229.461 139.201 229.806 140.185 229.87 141.194C229.935 142.204 229.727 143.146 229.247 144.02C228.788 144.899 228.097 145.639 227.177 146.241ZM226.395 144.281C227.033 143.864 227.487 143.366 227.757 142.786C228.039 142.199 228.136 141.584 228.048 140.94C227.981 140.301 227.754 139.686 227.369 139.097C226.815 138.25 226.072 137.702 225.139 137.454C224.213 137.218 223.244 137.37 222.23 137.91L226.395 144.281Z" fill="white"/>
<path d="M233.287 154.917C234.083 155.141 234.798 155.583 235.431 156.241C236.064 156.899 236.503 157.719 236.749 158.701C237.012 159.754 236.999 160.763 236.711 161.726C236.422 162.69 235.883 163.528 235.093 164.239C234.318 164.947 233.332 165.45 232.137 165.749C230.956 166.043 229.842 166.065 228.797 165.812C227.751 165.559 226.865 165.07 226.14 164.344C225.418 163.632 224.927 162.757 224.668 161.718C224.415 160.708 224.414 159.763 224.663 158.885C224.916 158.021 225.336 157.311 225.923 156.756L223.767 157.295L223.282 155.352L239.077 151.408L239.562 153.35L233.287 154.917ZM231.641 163.763C232.523 163.543 233.247 163.173 233.813 162.654C234.379 162.135 234.756 161.527 234.945 160.83C235.137 160.147 235.142 159.442 234.961 158.717C234.784 158.005 234.44 157.388 233.932 156.865C233.441 156.353 232.815 155.995 232.054 155.792C231.311 155.6 230.505 155.612 229.637 155.829C228.755 156.049 228.023 156.421 227.444 156.943C226.881 157.477 226.497 158.087 226.291 158.773C226.102 159.47 226.096 160.175 226.274 160.886C226.455 161.612 226.791 162.231 227.282 162.743C227.791 163.266 228.417 163.624 229.16 163.816C229.918 164.005 230.745 163.987 231.641 163.763Z" fill="white"/>
<path d="M232.285 177.097C231.904 177.109 231.5 177.1 231.074 177.069L230.775 167.438C229.59 167.548 228.672 167.98 228.02 168.734C227.383 169.502 227.082 170.414 227.114 171.469C227.141 172.334 227.361 173.046 227.775 173.606C228.204 174.179 228.759 174.573 229.44 174.787L229.507 176.941C228.339 176.655 227.374 176.039 226.611 175.094C225.862 174.149 225.466 172.958 225.421 171.522C225.386 170.378 225.61 169.344 226.095 168.419C226.581 167.509 227.284 166.783 228.207 166.241C229.144 165.698 230.235 165.407 231.481 165.369C232.727 165.33 233.827 165.545 234.781 166.015C235.734 166.484 236.474 167.158 237.001 168.037C237.542 168.93 237.831 169.963 237.867 171.135C237.903 172.279 237.685 173.298 237.214 174.193C236.743 175.088 236.075 175.784 235.21 176.28C234.36 176.791 233.385 177.063 232.285 177.097ZM232.639 175.017C233.401 174.994 234.049 174.805 234.58 174.451C235.127 174.096 235.531 173.622 235.791 173.027C236.066 172.446 236.193 171.804 236.171 171.1C236.14 170.088 235.79 169.233 235.123 168.535C234.456 167.852 233.55 167.476 232.403 167.409L232.639 175.017Z" fill="white"/>
<path d="M235.114 181.064L228.088 180.003C227.508 179.916 227.076 179.977 226.792 180.186C226.523 180.398 226.342 180.808 226.25 181.417L226.03 182.875L224.355 182.622L224.624 180.838C224.791 179.736 225.169 178.947 225.76 178.473C226.351 177.998 227.226 177.849 228.386 178.024L235.413 179.084L235.646 177.54L237.277 177.786L237.044 179.331L240.046 179.784L239.748 181.763L236.746 181.31L236.276 184.421L234.645 184.175L235.114 181.064Z" fill="white"/>
<path d="M232.831 190.155L226.049 188.033C225.489 187.858 225.053 187.852 224.741 188.016C224.442 188.184 224.201 188.562 224.017 189.15L223.577 190.556L221.96 190.051L222.499 188.329C222.832 187.265 223.326 186.544 223.983 186.165C224.639 185.787 225.527 185.772 226.647 186.123L233.429 188.245L233.895 186.754L235.47 187.247L235.003 188.737L237.901 189.644L237.303 191.554L234.406 190.648L233.466 193.65L231.892 193.158L232.831 190.155Z" fill="white"/>
<path d="M221.709 204.575C221.371 204.398 221.024 204.191 220.668 203.954L225.153 195.425C224.067 194.937 223.055 194.86 222.116 195.196C221.184 195.551 220.472 196.195 219.981 197.13C219.578 197.896 219.419 198.624 219.503 199.315C219.594 200.025 219.883 200.641 220.371 201.163L219.368 203.071C218.492 202.246 217.955 201.235 217.757 200.037C217.571 198.846 217.813 197.614 218.482 196.342C219.014 195.329 219.719 194.54 220.596 193.974C221.467 193.421 222.437 193.136 223.507 193.118C224.59 193.107 225.683 193.392 226.786 193.972C227.89 194.552 228.741 195.282 229.34 196.16C229.938 197.038 230.25 197.989 230.275 199.013C230.306 200.057 230.049 201.098 229.503 202.136C228.971 203.149 228.279 203.929 227.428 204.476C226.577 205.022 225.653 205.299 224.656 205.305C223.665 205.33 222.682 205.087 221.709 204.575ZM223.041 202.939C223.716 203.294 224.372 203.449 225.009 203.403C225.66 203.364 226.245 203.149 226.764 202.76C227.29 202.39 227.717 201.893 228.045 201.27C228.516 200.374 228.633 199.458 228.396 198.522C228.152 197.599 227.548 196.825 226.583 196.202L223.041 202.939Z" fill="white"/>
<path d="M222.245 208.884C222.571 209.587 222.684 210.309 222.586 211.053C222.479 211.807 222.136 212.554 221.557 213.293L219.929 212.017L220.255 211.601C221.64 209.835 221.374 208.201 219.458 206.699L214.298 202.654L215.533 201.079L225.021 208.517L223.786 210.092L222.245 208.884Z" fill="white"/>
<path d="M158.407 172.574C156.401 171.43 156.386 168.544 158.379 167.378L179.314 155.142C181.308 153.977 183.816 155.407 183.828 157.716L183.958 181.964C183.97 184.274 181.478 185.73 179.471 184.586L158.407 172.574Z" fill="white"/>
<circle cx="174" cy="170" r="28.5" stroke="white" stroke-width="3"/>
<defs>
<filter id="filter0_d_14_696" x="0" y="0" width="350" height="350" filterUnits="userSpaceOnUse" color-interpolation-filters="sRGB">
<feFlood flood-opacity="0" result="BackgroundImageFix"/>
<feColorMatrix in="SourceAlpha" type="matrix" values="0 0 0 0 0 0 0 0 0 0 0 0 0 0 0 0 0 0 127 0" result="hardAlpha"/>
<feOffset dy="4"/>
<feGaussianBlur stdDeviation="50"/>
<feComposite in2="hardAlpha" operator="out"/>
<feColorMatrix type="matrix" values="0 0 0 0 0 0 0 0 0 0 0 0 0 0 0 0 0 0 0.25 0"/>
<feBlend mode="normal" in2="BackgroundImageFix" result="effect1_dropShadow_14_696"/>
<feBlend mode="normal" in="SourceGraphic" in2="effect1_dropShadow_14_696" result="shape"/>
</filter>
</defs>
</svg>
