<svg width="299" height="146" viewBox="0 0 299 146" fill="none" xmlns="http://www.w3.org/2000/svg">
<g clip-path="url(#clip0_313_50)">
<path d="M263.5 0H35.5C15.8939 0 0 15.8939 0 35.5V110.5C0 130.106 15.8939 146 35.5 146H263.5C283.106 146 299 130.106 299 110.5V35.5C299 15.8939 283.106 0 263.5 0Z" fill="white" fill-opacity="0.2"/>
<path d="M235 7H64C62.3431 7 61 8.34315 61 10C61 11.6569 62.3431 13 64 13H235C236.657 13 238 11.6569 238 10C238 8.34315 236.657 7 235 7Z" fill="#D9D9D9"/>
<path d="M235 21H64C62.3431 21 61 22.3431 61 24C61 25.6569 62.3431 27 64 27H235C236.657 27 238 25.6569 238 24C238 22.3431 236.657 21 235 21Z" fill="#D9D9D9"/>
<path d="M235 14H64C62.3431 14 61 15.3431 61 17C61 18.6569 62.3431 20 64 20H235C236.657 20 238 18.6569 238 17C238 15.3431 236.657 14 235 14Z" fill="#D9D9D9"/>
<path d="M235 7H64C62.3431 7 61 8.34315 61 10C61 11.6569 62.3431 13 64 13H235C236.657 13 238 11.6569 238 10C238 8.34315 236.657 7 235 7Z" fill="#D9D9D9"/>
<path d="M235 133H64C62.3431 133 61 134.343 61 136C61 137.657 62.3431 139 64 139H235C236.657 139 238 137.657 238 136C238 134.343 236.657 133 235 133Z" fill="#D9D9D9"/>
<path d="M235 126H64C62.3431 126 61 127.343 61 129C61 130.657 62.3431 132 64 132H235C236.657 132 238 130.657 238 129C238 127.343 236.657 126 235 126Z" fill="#D9D9D9"/>
<path d="M235 119H64C62.3431 119 61 120.343 61 122C61 123.657 62.3431 125 64 125H235C236.657 125 238 123.657 238 122C238 120.343 236.657 119 235 119Z" fill="#D9D9D9"/>
<path d="M235 112H64C62.3431 112 61 113.343 61 115C61 116.657 62.3431 118 64 118H235C236.657 118 238 116.657 238 115C238 113.343 236.657 112 235 112Z" fill="#D9D9D9"/>
</g>
<defs>
<clipPath id="clip0_313_50">
<rect width="299" height="146" fill="white"/>
</clipPath>
</defs>
</svg>
