<svg width="150" height="124" viewBox="0 0 150 124" fill="none" xmlns="http://www.w3.org/2000/svg">
<path d="M17.8209 108.913L19.1185 107.93L21.643 111.262L32.567 102.984L33.7761 104.58L22.8521 112.857L25.3898 116.206L24.0923 117.19L17.8209 108.913Z" fill="white"/>
<path d="M16.7821 99.4165C16.3902 98.596 16.2147 97.7695 16.2559 96.9371C16.2839 96.111 16.56 95.3452 17.0844 94.6395C17.6025 93.9206 18.3644 93.3209 19.3701 92.8404L25.782 89.7771L26.6355 91.5637L20.4817 94.5037C19.3966 95.0222 18.6991 95.6886 18.3892 96.5031C18.0662 97.3239 18.1291 98.204 18.578 99.1437C19.0332 100.096 19.6945 100.715 20.5619 101C21.423 101.271 22.4226 101.135 23.5607 100.591L29.5755 97.7175L30.4385 99.5239L15.7489 106.542L14.8859 104.736L20.2456 102.175C19.5191 102.083 18.855 101.799 18.2535 101.322C17.6456 100.833 17.1552 100.197 16.7821 99.4165Z" fill="white"/>
<path d="M12.3238 91.654C12.4277 92.021 12.3886 92.3674 12.2064 92.6933C12.0243 93.0192 11.7498 93.2341 11.3829 93.338C11.016 93.4418 10.6695 93.4027 10.3436 93.2206C10.0177 93.0384 9.80281 92.7639 9.69895 92.397C9.5991 92.0442 9.64222 91.7119 9.82834 91.4001C10.0105 91.0742 10.285 90.8593 10.6519 90.7554C11.0188 90.6516 11.3652 90.6907 11.6912 90.8728C12.0131 91.0408 12.224 91.3012 12.3238 91.654ZM13.9442 90.1894L25.5445 86.906L26.0897 88.8324L14.4894 92.1157L13.9442 90.1894Z" fill="white"/>
<path d="M11.8947 78.7711C11.7396 77.3127 12.0588 76.084 12.8523 75.0852C13.6312 74.0879 14.8519 73.5008 16.5145 73.324L23.5807 72.5724L23.7901 74.5413L17.0083 75.2626C15.8124 75.3898 14.9327 75.7858 14.3692 76.4504C13.791 77.1166 13.557 77.9675 13.6672 79.003C13.7789 80.053 14.1962 80.8568 14.9192 81.4141C15.6406 81.9568 16.6285 82.1615 17.8828 82.0281L24.5114 81.3231L24.7231 83.3139L12.7347 84.5889L12.523 82.5981L14.2294 82.4167C13.5749 82.088 13.0443 81.6061 12.6375 80.9709C12.2292 80.3211 11.9816 79.5879 11.8947 78.7711Z" fill="white"/>
<path d="M24.772 65.3716L19.0158 69.565L24.3149 70.0795L24.1214 72.0721L7.91764 70.4989L8.1111 68.5063L17.6363 69.4311L12.7639 64.2942L13.0339 61.5133L18.4633 67.7431L25.0356 62.6564L24.772 65.3716Z" fill="white"/>
<path d="M19.0598 51.1656C18.5711 50.4976 18.2807 49.7092 18.1886 48.8007C18.0964 47.8921 18.2567 46.9758 18.6695 46.0518C19.1121 45.0608 19.7442 44.275 20.5658 43.6942C21.3875 43.1135 22.3285 42.7869 23.3889 42.7144C24.436 42.6359 25.5219 42.8479 26.6468 43.3504C27.7583 43.8468 28.6476 44.5171 29.3146 45.3612C29.9817 46.2054 30.3769 47.1368 30.5 48.1557C30.6292 49.1611 30.4755 50.1526 30.0388 51.1302C29.6141 52.081 29.0327 52.8252 28.2946 53.3629C27.5624 53.8873 26.7942 54.1866 25.9899 54.2611L28.0187 55.1673L27.2022 56.9952L12.3377 50.3557L13.1542 48.5277L19.0598 51.1656ZM25.8124 45.2185C24.9821 44.8476 24.1842 44.692 23.4186 44.7516C22.6531 44.8113 21.981 45.0572 21.4024 45.4895C20.8298 45.9084 20.3909 46.4593 20.0859 47.1423C19.7868 47.8119 19.6761 48.5093 19.7536 49.2347C19.8238 49.9407 20.0958 50.6084 20.5697 51.2377C21.0362 51.8476 21.6778 52.335 22.4947 52.6999C23.325 53.0708 24.1296 53.2294 24.9085 53.1757C25.6801 53.1027 26.3588 52.8597 26.9449 52.4468C27.5235 52.0145 27.9623 51.4636 28.2614 50.794C28.5664 50.1111 28.6839 49.4166 28.6137 48.7106C28.5361 47.9852 28.2641 47.3176 27.7977 46.7076C27.3178 46.0917 26.656 45.5953 25.8124 45.2185Z" fill="white"/>
<path d="M33.5311 34.3267C33.8384 34.5526 34.1503 34.8091 34.467 35.0965L28.7606 42.8611C29.7613 43.5055 30.7506 43.7321 31.7285 43.5407C32.7033 43.3288 33.5034 42.7974 34.1287 41.9465C34.6412 41.2492 34.9072 40.5529 34.9269 39.8574C34.9434 39.1415 34.7493 38.4892 34.3446 37.9006L35.6214 36.1633C36.364 37.1095 36.7441 38.1897 36.7618 39.404C36.7676 40.6096 36.3449 41.7915 35.4937 42.9497C34.8163 43.8715 34.0015 44.5468 33.0493 44.9755C32.1059 45.3924 31.1039 45.5298 30.0436 45.3875C28.9714 45.2366 27.933 44.792 26.9285 44.0537C25.9239 43.3155 25.1911 42.4675 24.7301 41.5098C24.269 40.5521 24.1025 39.5651 24.2305 38.5489C24.3553 37.5122 24.7652 36.5211 25.46 35.5756C26.1375 34.6538 26.9377 33.986 27.8607 33.5722C28.7836 33.1584 29.7386 33.023 30.7257 33.1659C31.7096 33.2884 32.6447 33.6753 33.5311 34.3267ZM31.9696 35.7456C31.355 35.2939 30.7292 35.0433 30.0922 34.9938C29.4433 34.9355 28.8329 35.0603 28.261 35.368C27.6858 35.6552 27.1898 36.0824 26.7729 36.6497C26.1736 37.4652 25.9212 38.3535 26.0156 39.3148C26.1187 40.2642 26.6007 41.1191 27.4618 41.8793L31.9696 35.7456Z" fill="white"/>
<path d="M33.7518 29.4599L38.6276 34.6292C39.0302 35.056 39.4077 35.2745 39.7601 35.2848C40.1025 35.2844 40.4978 35.0729 40.9459 34.6503L42.0182 33.6389L43.1805 34.8712L41.8682 36.109C41.0573 36.8738 40.273 37.2607 39.5154 37.2697C38.7577 37.2787 37.9763 36.8564 37.1712 36.0029L32.2955 30.8335L31.1592 31.9053L30.027 30.705L31.1633 29.6332L29.0802 27.4247L30.5365 26.051L32.6197 28.2596L34.9083 26.1009L36.0404 27.3012L33.7518 29.4599Z" fill="white"/>
<path d="M41.1572 23.7135L45.1857 29.5673C45.5183 30.0506 45.858 30.3242 46.2047 30.3883C46.5432 30.4402 46.9661 30.2916 47.4735 29.9424L48.6878 29.1068L49.6481 30.5022L48.162 31.525C47.2438 32.1569 46.4096 32.4194 45.6595 32.3125C44.9094 32.2056 44.2017 31.6688 43.5365 30.7022L39.508 24.8485L38.2213 25.734L37.2859 24.3748L38.5726 23.4893L36.8515 20.9883L38.5007 19.8533L40.2218 22.3543L42.8134 20.5708L43.7488 21.93L41.1572 23.7135Z" fill="white"/>
<path d="M58.8069 19.2261C58.963 19.574 59.1081 19.951 59.2422 20.357L50.4513 24.3032C51.0047 25.357 51.754 26.0414 52.6993 26.3566C53.652 26.6524 54.6101 26.5841 55.5734 26.1516C56.3629 25.7973 56.9374 25.3223 57.2971 24.7268C57.6642 24.1119 57.8166 23.4487 57.7544 22.7371L59.7213 21.8541C59.9014 23.0433 59.7001 24.1706 59.1173 25.2361C58.5285 26.2881 57.5785 27.1085 56.2672 27.6971C55.2235 28.1656 54.1818 28.3519 53.142 28.2559C52.1155 28.154 51.176 27.78 50.3232 27.1339C49.4645 26.4743 48.7799 25.5759 48.2694 24.4386C47.7588 23.3013 47.5388 22.2023 47.6093 21.1417C47.6799 20.0812 48.0211 19.1402 48.6331 18.3189C49.2525 17.4782 50.0974 16.8176 51.1678 16.3371C52.2115 15.8686 53.2369 15.6817 54.2439 15.7762C55.2509 15.8708 56.1487 16.2234 56.9373 16.834C57.7332 17.4252 58.3564 18.2226 58.8069 19.2261ZM56.7491 19.6917C56.4367 18.9959 56.0156 18.4695 55.4856 18.1126C54.9496 17.7423 54.3569 17.5502 53.7076 17.5362C53.0656 17.5028 52.4235 17.6303 51.7813 17.9186C50.858 18.333 50.2007 18.9818 49.8094 19.8648C49.4314 20.7419 49.4298 21.7232 49.8046 22.8089L56.7491 19.6917Z" fill="white"/>
<path d="M61.0428 15.5036C61.22 14.7502 61.5764 14.1113 62.1121 13.5869C62.6619 13.059 63.3926 12.683 64.3041 12.4588L64.7979 14.467L64.2852 14.5931C62.1061 15.1289 61.3072 16.5789 61.8885 18.9432L63.4539 25.3095L61.5098 25.7876L58.6312 14.0803L60.5753 13.6023L61.0428 15.5036Z" fill="white"/>
<path d="M77.6719 7.77971L77.4043 24.0575L75.4025 24.0246L75.6701 7.7468L77.6719 7.77971Z" fill="white"/>
<path d="M84.4376 10.7196C84.0599 10.6675 83.7582 10.4927 83.5328 10.1951C83.3073 9.89752 83.2206 9.55985 83.2727 9.18208C83.3247 8.80432 83.4996 8.50271 83.7971 8.27723C84.0947 8.05176 84.4324 7.96506 84.8102 8.01713C85.1734 8.06721 85.4605 8.24003 85.6714 8.53561C85.8969 8.83319 85.9836 9.17086 85.9315 9.54862C85.8794 9.92638 85.7046 10.228 85.407 10.4535C85.124 10.6809 84.8008 10.7696 84.4376 10.7196ZM85.1292 12.7914L83.4828 24.7345L81.4995 24.4611L83.1459 12.518L85.1292 12.7914Z" fill="white"/>
<path d="M94.8981 16.8642L92.4587 16.193L89.6982 26.2261L87.7679 25.695L90.5285 15.6619L89.0224 15.2475L89.4602 13.6566L90.9662 14.071L91.1938 13.2437C91.5518 11.9428 92.1448 11.0867 92.9728 10.6757C93.8189 10.2544 94.9844 10.248 96.4692 10.6565L96.0256 12.2686C95.1772 12.0352 94.5295 12.0395 94.0826 12.2816C93.6537 12.5135 93.3342 13.0112 93.1241 13.7748L92.8965 14.6021L95.3358 15.2733L94.8981 16.8642Z" fill="white"/>
<path d="M106.741 26.5632C106.577 26.9076 106.384 27.2624 106.162 27.6277L97.4597 23.4898C97.0158 24.5942 96.9801 25.6085 97.3526 26.5327C97.7448 27.4499 98.4176 28.1353 99.3713 28.5887C100.153 28.9603 100.887 29.0901 101.573 28.9781C102.28 28.8592 102.884 28.5454 103.385 28.0369L105.332 28.9627C104.543 29.8706 103.554 30.4478 102.365 30.6944C101.182 30.9278 99.942 30.7358 98.6439 30.1186C97.6107 29.6274 96.7938 28.9547 96.193 28.1006C95.6054 27.2528 95.2814 26.2949 95.2209 25.2267C95.1667 24.1453 95.4072 23.0417 95.9426 21.9158C96.4779 20.7899 97.1723 19.9102 98.0257 19.2766C98.8792 18.6431 99.8169 18.2932 100.839 18.227C101.881 18.1539 102.931 18.3693 103.991 18.8731C105.024 19.3644 105.831 20.0241 106.412 20.8524C106.992 21.6806 107.306 22.5929 107.351 23.5891C107.417 24.5784 107.214 25.5698 106.741 26.5632ZM105.053 25.2977C105.381 24.6089 105.509 23.9471 105.437 23.3121C105.372 22.664 105.134 22.0881 104.724 21.5845C104.333 21.0739 103.82 20.6675 103.184 20.3652C102.27 19.9306 101.35 19.8504 100.424 20.1246C99.511 20.4051 98.7626 21.0399 98.1786 22.029L105.053 25.2977Z" fill="white"/>
<path d="M116.477 30.7866C117.274 30.563 118.114 30.5672 118.997 30.7993C119.88 31.0314 120.682 31.5026 121.403 32.213C122.176 32.9748 122.691 33.8422 122.947 34.8153C123.203 35.7883 123.179 36.7841 122.875 37.8027C122.582 38.8108 122.003 39.7537 121.138 40.6311C120.283 41.4982 119.344 42.0962 118.32 42.4252C117.295 42.7542 116.284 42.7978 115.287 42.5562C114.3 42.3249 113.425 41.8334 112.663 41.0819C111.921 40.351 111.428 39.5456 111.183 38.6658C110.948 37.7964 110.937 36.9719 111.149 36.1926L109.589 37.7752L108.163 36.3699L119.591 24.7745L121.017 26.1798L116.477 30.7866ZM119.681 39.195C120.319 38.5473 120.744 37.8545 120.957 37.1166C121.169 36.3787 121.174 35.6631 120.972 34.9697C120.78 34.2866 120.418 33.6825 119.885 33.1575C119.363 32.6427 118.749 32.2946 118.042 32.1131C117.356 31.9314 116.636 31.9522 115.88 32.1755C115.145 32.3987 114.464 32.8289 113.836 33.4661C113.198 34.1137 112.767 34.8118 112.545 35.5601C112.343 36.3083 112.332 37.0292 112.514 37.7227C112.716 38.4161 113.078 39.0202 113.6 39.5349C114.133 40.06 114.742 40.4133 115.428 40.595C116.135 40.7765 116.855 40.7557 117.59 40.5326C118.335 40.299 119.032 39.8531 119.681 39.195Z" fill="white"/>
<path d="M127.177 50.2408C126.858 50.4495 126.508 50.6518 126.128 50.8477L120.855 42.7822C119.901 43.4936 119.342 44.3408 119.179 45.3238C119.036 46.311 119.253 47.2466 119.831 48.1305C120.304 48.8548 120.863 49.348 121.508 49.6101C122.172 49.8764 122.851 49.9232 123.544 49.7505L124.724 51.5551C123.578 51.919 122.433 51.8965 121.289 51.4875C120.158 51.0705 119.199 50.2605 118.413 49.0574C117.787 48.0999 117.44 47.1001 117.372 46.0581C117.312 45.0283 117.535 44.0418 118.039 43.0985C118.556 42.1472 119.337 41.3305 120.38 40.6483C121.424 39.9662 122.475 39.577 123.533 39.4808C124.592 39.3846 125.574 39.5744 126.481 40.0504C127.409 40.5307 128.193 41.2618 128.835 42.2439C129.461 43.2015 129.806 44.185 129.87 45.1944C129.935 46.2038 129.727 47.1457 129.247 48.0201C128.788 48.8987 128.097 49.639 127.177 50.2408ZM126.395 48.2812C127.033 47.8639 127.487 47.3656 127.757 46.7863C128.039 46.199 128.136 45.5835 128.048 44.94C127.981 44.3007 127.754 43.6865 127.369 43.0972C126.815 42.2501 126.072 41.7024 125.139 41.454C124.213 41.2178 123.244 41.3698 122.23 41.9098L126.395 48.2812Z" fill="white"/>
<path d="M133.287 58.9172C134.083 59.1415 134.798 59.5827 135.431 60.241C136.064 60.8992 136.503 61.7192 136.749 62.7011C137.012 63.7541 136.999 64.7625 136.711 65.7265C136.422 66.6904 135.883 67.528 135.093 68.2392C134.318 68.9469 133.332 69.45 132.137 69.7485C130.956 70.0435 129.842 70.0646 128.797 69.8117C127.751 69.5589 126.865 69.0696 126.14 68.3438C125.418 67.6321 124.927 66.757 124.668 65.7182C124.415 64.7079 124.414 63.7635 124.663 62.8849C124.916 62.0206 125.336 61.311 125.923 60.7562L123.767 61.2946L123.282 59.3523L139.077 55.4076L139.562 57.35L133.287 58.9172ZM131.641 67.7635C132.523 67.5432 133.247 67.1734 133.813 66.6542C134.379 66.135 134.756 65.5268 134.945 64.8296C135.137 64.1467 135.142 63.4424 134.961 62.7166C134.784 62.0052 134.44 61.3879 133.932 60.8649C133.441 60.3525 132.815 59.9949 132.054 59.7919C131.311 59.5997 130.505 59.6119 129.637 59.8287C128.755 60.049 128.023 60.4206 127.444 60.9433C126.881 61.4768 126.497 62.0867 126.291 62.7732C126.102 63.4704 126.096 64.1747 126.274 64.8862C126.455 65.6119 126.791 66.2309 127.282 66.7433C127.791 67.2663 128.417 67.624 129.16 67.8162C129.918 68.005 130.745 67.9874 131.641 67.7635Z" fill="white"/>
<path d="M132.285 81.0974C131.904 81.1092 131.5 81.0997 131.074 81.0689L130.775 71.4376C129.59 71.5477 128.672 71.9798 128.02 72.7337C127.383 73.5018 127.082 74.4136 127.114 75.4691C127.141 76.334 127.361 77.0462 127.775 77.6056C128.204 78.1793 128.759 78.5729 129.44 78.7865L129.507 80.9415C128.339 80.6549 127.374 80.0393 126.611 79.0945C125.862 78.1492 125.466 76.9583 125.421 75.5217C125.386 74.3782 125.61 73.3441 126.095 72.4192C126.581 71.5091 127.284 70.7829 128.207 70.2407C129.144 69.698 130.235 69.4074 131.481 69.3687C132.727 69.33 133.827 69.5453 134.781 70.0146C135.734 70.4839 136.474 71.1579 137.001 72.0367C137.542 72.9297 137.831 73.9625 137.867 75.1353C137.903 76.2788 137.685 77.298 137.214 78.1931C136.743 79.0881 136.075 79.7838 135.21 80.2803C134.36 80.7909 133.385 81.0632 132.285 81.0974ZM132.639 79.0174C133.401 78.9937 134.049 78.8049 134.58 78.4509C135.127 78.0964 135.531 77.6217 135.791 77.0266C136.066 76.4458 136.193 75.8036 136.171 75.0999C136.14 74.0884 135.79 73.2335 135.123 72.5352C134.456 71.8516 133.55 71.4762 132.403 71.4091L132.639 79.0174Z" fill="white"/>
<path d="M135.114 85.0639L128.088 84.0034C127.508 83.9159 127.076 83.9768 126.792 84.1861C126.523 84.3976 126.342 84.8079 126.25 85.417L126.03 86.8745L124.355 86.6217L124.624 84.8379C124.791 83.7357 125.169 82.9474 125.76 82.4729C126.351 81.9984 127.226 81.8487 128.386 82.0238L135.413 83.0843L135.646 81.5398L137.277 81.7861L137.044 83.3306L140.046 83.7836L139.748 85.7632L136.746 85.3101L136.276 88.4209L134.645 88.1747L135.114 85.0639Z" fill="white"/>
<path d="M132.831 94.1552L126.049 92.0334C125.489 91.8582 125.053 91.8524 124.741 92.0159C124.442 92.1838 124.201 92.5617 124.017 93.1496L123.577 94.5563L121.96 94.0505L122.499 92.3288C122.832 91.265 123.326 90.5438 123.983 90.1651C124.639 89.7865 125.527 89.7724 126.647 90.1227L133.429 92.2446L133.895 90.7538L135.47 91.2465L135.003 92.7373L137.901 93.6438L137.303 95.5545L134.406 94.6479L133.466 97.6504L131.892 97.1577L132.831 94.1552Z" fill="white"/>
<path d="M121.709 108.575C121.371 108.398 121.024 108.191 120.668 107.954L125.153 99.4249C124.067 98.9369 123.055 98.8605 122.116 99.1956C121.184 99.5505 120.472 100.195 119.981 101.13C119.578 101.896 119.419 102.624 119.503 103.315C119.594 104.025 119.883 104.641 120.371 105.163L119.368 107.071C118.492 106.246 117.955 105.235 117.757 104.037C117.571 102.846 117.813 101.614 118.482 100.342C119.014 99.3291 119.719 98.5398 120.596 97.9739C121.467 97.4209 122.437 97.1356 123.507 97.1181C124.59 97.1074 125.683 97.3921 126.786 97.9722C127.89 98.5524 128.741 99.2816 129.34 100.16C129.938 101.038 130.25 101.989 130.275 103.013C130.306 104.057 130.049 105.098 129.503 106.136C128.971 107.149 128.279 107.929 127.428 108.476C126.577 109.022 125.653 109.299 124.656 109.305C123.665 109.33 122.682 109.087 121.709 108.575ZM123.041 106.939C123.716 107.294 124.372 107.449 125.009 107.403C125.66 107.364 126.245 107.149 126.764 106.76C127.29 106.39 127.717 105.893 128.045 105.27C128.516 104.374 128.633 103.458 128.396 102.522C128.152 101.599 127.548 100.825 126.583 100.202L123.041 106.939Z" fill="white"/>
<path d="M122.245 112.884C122.571 113.587 122.684 114.309 122.586 115.053C122.479 115.807 122.136 116.554 121.557 117.293L119.929 116.017L120.255 115.601C121.64 113.835 121.374 112.201 119.458 110.699L114.298 106.654L115.533 105.079L125.021 112.517L123.786 114.092L122.245 112.884Z" fill="white"/>
</svg>
