<svg width="34" height="32" viewBox="0 0 34 32" fill="none" xmlns="http://www.w3.org/2000/svg">
<path d="M0.823602 26.7153C1.39853 27.4804 2.25331 28.1199 3.29707 28.566C4.34083 29.0121 5.53454 29.2481 6.75126 29.2488H13.8055V29.9055C13.8055 30.4279 14.0965 30.929 14.6143 31.2985C15.1322 31.6679 15.8345 31.8755 16.5669 31.8755C17.2992 31.8755 18.0016 31.6679 18.5194 31.2985C19.0373 30.929 19.3282 30.4279 19.3282 29.9055V29.2488H26.3825C27.5994 29.2479 28.7932 29.0118 29.837 28.5655C30.8808 28.1191 31.7355 27.4793 32.3102 26.714C32.8951 25.9399 33.1755 25.0672 33.1217 24.1886C33.0679 23.31 32.6819 22.4581 32.0046 21.7233L29.9336 19.4775C30.2505 19.246 30.5201 18.9838 30.7344 18.6987C31.155 18.1434 31.357 17.5171 31.3187 16.8865C31.2805 16.2559 31.0035 15.6445 30.5171 15.1172L27.3306 11.6578C27.4754 11.5225 27.6053 11.3794 27.719 11.2297C28.1417 10.6806 28.3498 10.0606 28.3217 9.43444C28.2935 8.80832 28.03 8.1991 27.5588 7.67049C27.4906 7.59639 27.4168 7.52492 27.3379 7.45642L20.3444 1.55686C20.3002 1.5214 20.2487 1.48594 20.21 1.45311C19.2374 0.772426 17.9293 0.391113 16.5669 0.391113C15.2044 0.391113 13.8964 0.772426 12.9238 1.45311C12.8796 1.48463 12.8354 1.51878 12.7949 1.55292L5.77007 7.44722C5.69161 7.51475 5.61847 7.58534 5.551 7.65867C5.07592 8.18661 4.80896 8.79611 4.77819 9.42311C4.74742 10.0501 4.95396 10.6714 5.37612 11.2218C5.49647 11.38 5.63437 11.5311 5.78848 11.6736L2.61663 15.1132C2.12913 15.64 1.85082 16.2512 1.81128 16.8819C1.77173 17.5125 1.97243 18.139 2.39204 18.6947C2.60634 18.9799 2.87592 19.2421 3.19283 19.4735L1.12183 21.7194C0.44423 22.4552 0.0586972 23.3083 0.00618774 24.188C-0.0463217 25.0676 0.236153 25.941 0.823602 26.7153ZM5.74246 23.8838L9.66539 19.6285C9.9161 19.3564 10.0683 19.0441 10.1085 18.7197C10.1486 18.3953 10.0754 18.0689 9.8954 17.7696C9.71538 17.4703 9.43419 17.2076 9.07697 17.0048C8.71975 16.8021 8.29764 16.6657 7.84843 16.6078L11.9647 12.1411C12.1778 11.9052 12.3181 11.6396 12.3763 11.3621C12.4345 11.0845 12.4092 10.8012 12.3021 10.5312C12.195 10.2611 12.0086 10.0104 11.7552 9.79568C11.5018 9.58098 11.1873 9.4072 10.8325 9.28591L16.5669 4.47249L22.2736 9.28591C21.9196 9.40804 21.6063 9.58271 21.3545 9.79822C21.1027 10.0137 20.9184 10.2651 20.8138 10.5356C20.7093 10.806 20.6869 11.0893 20.7481 11.3664C20.8094 11.6435 20.9529 11.9081 21.1691 12.1424L25.2872 16.6078C24.838 16.6657 24.4159 16.8021 24.0586 17.0048C23.7014 17.2076 23.4202 17.4703 23.2402 17.7696C23.0602 18.0689 22.987 18.3953 23.0271 18.7197C23.0673 19.0441 23.2195 19.3564 23.4702 19.6285L27.395 23.8838C27.528 24.0246 27.6038 24.189 27.6139 24.3587C27.624 24.5284 27.5679 24.6968 27.4521 24.8451C27.3532 24.986 27.2009 25.1043 27.0124 25.1865C26.824 25.2687 26.607 25.3115 26.3862 25.3101H6.75126C6.53042 25.3115 6.31344 25.2687 6.12501 25.1865C5.93658 25.1043 5.78427 24.986 5.68539 24.8451C5.56949 24.6968 5.51347 24.5284 5.52355 24.3587C5.53362 24.189 5.60939 24.0246 5.74246 23.8838Z" fill="#54C352"/>
<path d="M15.6464 22.682C17.1715 22.682 18.4078 21.8 18.4078 20.712C18.4078 19.624 17.1715 18.7419 15.6464 18.7419C14.1214 18.7419 12.8851 19.624 12.8851 20.712C12.8851 21.8 14.1214 22.682 15.6464 22.682Z" fill="#54C352"/>
<path d="M17.4873 16.1153C19.0124 16.1153 20.2487 15.2333 20.2487 14.1453C20.2487 13.0573 19.0124 12.1753 17.4873 12.1753C15.9623 12.1753 14.726 13.0573 14.726 14.1453C14.726 15.2333 15.9623 16.1153 17.4873 16.1153Z" fill="#54C352"/>
</svg>
