<svg width="26" height="26" viewBox="0 0 26 26" fill="none" xmlns="http://www.w3.org/2000/svg">
<g clip-path="url(#clip0_11_309)">
<path d="M25.6826 24.1508L19.2162 17.6843C20.9784 15.5292 21.8448 12.7791 21.6362 10.003C21.4276 7.22696 20.16 4.63725 18.0956 2.76957C16.0311 0.901894 13.3278 -0.100859 10.5448 -0.0312743C7.76176 0.0383101 5.11194 1.17491 3.14342 3.14342C1.17491 5.11194 0.0383101 7.76176 -0.0312743 10.5448C-0.100859 13.3278 0.901894 16.0311 2.76957 18.0956C4.63725 20.16 7.22696 21.4276 10.003 21.6362C12.7791 21.8448 15.5292 20.9784 17.6843 19.2162L24.1508 25.6826C24.3551 25.8799 24.6287 25.9891 24.9128 25.9867C25.1968 25.9842 25.4685 25.8703 25.6694 25.6694C25.8703 25.4685 25.9842 25.1968 25.9867 24.9128C25.9891 24.6287 25.8799 24.3551 25.6826 24.1508ZM10.8333 19.5C9.11924 19.5 7.44362 18.9917 6.0184 18.0394C4.59317 17.0871 3.48234 15.7336 2.82639 14.1499C2.17043 12.5663 1.9988 10.8237 2.3332 9.14256C2.66761 7.46139 3.49303 5.91714 4.70508 4.70508C5.91714 3.49303 7.46139 2.66761 9.14256 2.3332C10.8237 1.9988 12.5663 2.17043 14.1499 2.82639C15.7336 3.48234 17.0871 4.59317 18.0394 6.0184C18.9917 7.44362 19.5 9.11924 19.5 10.8333C19.4974 13.1311 18.5835 15.334 16.9587 16.9587C15.334 18.5835 13.1311 19.4974 10.8333 19.5Z" fill="white"/>
</g>
<defs>
<clipPath id="clip0_11_309">
<rect width="26" height="26" fill="white"/>
</clipPath>
</defs>
</svg>
